{"title":"The Hobbit An Unexpected Journey 2012 DVDRip XviD AC3-Atilla82","uid":8222196,"size":1779305680,"categoryP":"video","categoryS":"movies","magnet":"?xt=urn:btih:7571125bd9c6daa4d9bd45a59f6438adeb5a1f67&amp;dn=The+Hobbit+An+Unexpected+Journey+2012+DVDRip+XviD+AC3-Atilla82&amp;tr=udp%3A%2F%2Ftracker.openbittorrent.com%3A80&amp;tr=udp%3A%2F%2Fopen.demonii.com%3A1337&amp;tr=udp%3A%2F%2Ftracker.coppersurfer.tk%3A6969&amp;tr=udp%3A%2F%2Fexodus.desync.com%3A6969","seeders":1,"leechers":0,"uploader":"Atilla82","files":8,"time":1362502501,"description":"The Hobbit An Unexpected Journey 2012 DVDRip XviD AC3-Atilla82\n\n\nSUBTITLES: English, Spanish, Croatian, Dutch, Portuguese, Swedish (.srt)\n\n\n\n\n\n &lt;a href=&quot;\nhttp://www.imdb.com/title/tt0903624/&quot; rel=&quot;nofollow&quot; target=&quot;_NEW&quot;&gt;\nhttp://www.imdb.com/title/tt0903624/&lt;/a&gt;\n\n\nA younger and more reluctant Hobbit, Bilbo Baggins, sets out on an &quot;unexpected journey&quot; to the Lonely Mountain with a spirited group of Dwarves to reclaim their stolen mountain home from a dragon named Smaug.\n\n\n\n\n\nGeneral\nComplete name : The.Hobbit.An.Unexpected.Journey.2012.DVDRip.XviD.AC3-Atilla82.avi\nFormat : AVI\nFormat/Info : Audio Video Interleave\nFile size : 1.66 GiB\nDuration : 2h 49mn\nOverall bit rate : 1 398 Kbps\nWriting application : VirtualDubMod 1.5.10.2 (build 2540/release)\nWriting library : VirtualDubMod build 2540/release\n\nVideo\nID : 0\nFormat : MPEG-4 Visual\nFormat profile : Advanced Simple@L5\nFormat settings, BVOP : 1\nFormat settings, QPel : No\nFormat settings, GMC : No warppoints\nFormat settings, Matrix : Default (H.263)\nCodec ID : XVID\nCodec ID/Hint : XviD\nDuration : 2h 49mn\nBit rate : 1 005 Kbps\nWidth : 640 pixels\nHeight : 272 pixels\nDisplay aspect ratio : 2.35:1\nFrame rate : 23.976 fps\nColor space : YUV\nChroma subsampling : 4:2:0\nBit depth : 8 bits\nScan type : Progressive\nCompression mode : Lossy\nBits/(Pixel*Frame) : 0.241\nStream size : 1.19 GiB (72%)\nWriting library : XviD 1.2.1 (UTC 2008-12-04)\n\nAudio\nID : 1\nFormat : AC-3\nFormat/Info : Audio Coding 3\nMode extension : CM (complete main)\nFormat settings, Endianness : Big\nCodec ID : 2000\nDuration : 2h 49mn\nBit rate mode : Constant\nBit rate : 384 Kbps\nChannel(s) : 6 channels\nChannel positions : Front: L C R, Side: L R, LFE\nSampling rate : 48.0 KHz\nBit depth : 16 bits\nCompression mode : Lossy\nStream size : 466 MiB (27%)\nAlignment : Split accross interleaves\nInterleave, duration : 42 ms (1.00 video frame)\nInterleave, preload duration : 500 ms\n\n\n\nSCREENSHoTS &lt;a href=&quot;\nhttp://www.pohrani.com/f/3G/ke/3lELUyBF/screenshots.jpg&quot; rel=&quot;nofollow&quot; target=&quot;_NEW&quot;&gt;\nhttp://www.pohrani.com/f/3G/ke/3lELUyBF/screenshots.jpg&lt;/a&gt;\n\n\n","torrent":{"xt":"urn:btih:7571125bd9c6daa4d9bd45a59f6438adeb5a1f67","amp;dn":"The+Hobbit+An+Unexpected+Journey+2012+DVDRip+XviD+AC3-Atilla82","amp;tr":["udp%3A%2F%2Ftracker.openbittorrent.com%3A80","udp%3A%2F%2Fopen.demonii.com%3A1337","udp%3A%2F%2Ftracker.coppersurfer.tk%3A6969","udp%3A%2F%2Fexodus.desync.com%3A6969"],"infoHash":"7571125bd9c6daa4d9bd45a59f6438adeb5a1f67","infoHashBuffer":{"type":"Buffer","data":[117,113,18,91,217,198,218,164,217,189,69,165,159,100,56,173,235,90,31,103]},"announce":[],"urlList":[]}}